# xmcd
# 
# Track frame offsets:
#     150
#     15865
#     34016
#     47930
#     65184
#     83834
#     98652
#     111804
#     127716
#     143871
# 
# Disc length: 2085
# 
# Revision: 0
# Processed by: cddbd v1.5.2PL0 Copyright (c) Steve Scherf et al.
# Submitted via: fre:ac v1.0.17
# 
DISCID=7a08230a
DTITLE=Glen Templeton - Glen Templeton
DYEAR=2011
DGENRE=Country
TTITLE0=Country Boys For Life
TTITLE1=Choosing To Believe
TTITLE2=I Could Be The One
TTITLE3=I Threw It Away
TTITLE4=When Gone Comes Back
TTITLE5=Devil In The Mirror
TTITLE6=Fixer Upper
TTITLE7=Say Something
TTITLE8=God Bless Good Old Boys
TTITLE9=A Sinner's Prayer
EXTD=
EXTT0=
EXTT1=
EXTT2=
EXTT3=
EXTT4=
EXTT5=
EXTT6=
EXTT7=
EXTT8=
EXTT9=
PLAYORDER=
